# xmcd
#
# Track frame offsets:
#	150
#	19924
#	39109
#	57165
#	75011
#	93190
#	110679
#	128171
#	146948
#	164960
#	182589
#	195963
#
# Disc length: 2857 seconds
#
# Revision: 3
# Processed by: cddbd v1.5.2PL0 Copyright (c) Steve Scherf et al.
# Submitted via: audiograbber 1.83.01
#
DISCID=960b270c
DTITLE=Urban, Keith - SINKU1
DYEAR=1900
DGENRE=Karaoke
TTITLE0=Urban, Keith - Once In A Lifetime
TTITLE1=Urban, Keith - Tonight I Wanna Cry
TTITLE2=Urban, Keith - You'll Think Of Me
TTITLE3=Urban, Keith - Making Memories Of Us
TTITLE4=Urban, Keith - Better Life
TTITLE5=Urban, Keith - Days Go By
TTITLE6=Urban, Keith - Somebody Like You
TTITLE7=Urban, Keith - You're My Better Half
TTITLE8=Urban, Keith - Who Wouldn't Wanna Be Me
TTITLE9=Urban, Keith - But For The Grace Of God
TTITLE10=Urban, Keith - Where The Blacktop Ends
TTITLE11=Urban, Keith - Raining On Sunday
EXTD=
EXTT0=
EXTT1=
EXTT2=
EXTT3=
EXTT4=
EXTT5=
EXTT6=
EXTT7=
EXTT8=
EXTT9=
EXTT10=
EXTT11=
PLAYORDER=
